<?xml version="1.0" encoding="UTF-8"?>
<svg xmlns="http://www.w3.org/2000/svg" viewBox="1198 336 305 235">
  <path fill="#2563eb" d="M1342.7,466.8c-.8-1.3-1.7-2.7-2.5-4-7.6-12.7-13.9-26.6-16.4-41.2-2.3-13.2-1-27.5,3.2-40.5,8.7-8.9,20-14.7,32.6-16.4,9.3-1.2,18.3-.3,27,3.3,8.9,3.8,16.9,9.6,24.1,16,8.2,7.3,22.3,24.1,22.3,24.1l15-26c-9.4-11.8-19.8-23.1-32.1-31.9-6.1-4.3-12.7-8-19.8-10.2-6.8-2.1-13.8-2.3-20.9-1.4-12.3,1.5-23.8,6.8-32.6,15.7-5.4,5.5-9.3,12-13.2,18.7-6,10.3-12.8,20.6-16.8,32-4.1,11.6-5.9,24.6-4.8,36.9.8,8.6,3.1,17,6.3,25h-53.8l-15,26h82.1c10.3,16.3,23.4,31,37.9,43.5,3.1,2.7,6.3,5.3,9.6,7.7h-159.4l-15,26h286.6l15-26h-50.8c-30.4-2.6-58.3-20.9-79.7-41.6-3.2-3.1-6.3-6.3-9.3-9.6h169.5l15.1-26h-204.4.2ZM1331,371c.2-.4.4-.7.5-1.1,3.1-6.2,8.5-12.7-2.3,5.2.6-1.4,1.2-2.7,1.8-4.1Z"/>
</svg>
